<svg width="40" height="40" viewBox="0 0 40 40" fill="none" xmlns="http://www.w3.org/2000/svg">
<circle cx="20" cy="20" r="20" fill="#144B9E"/>
<path d="M20 20C22.7614 20 25 17.7614 25 15C25 12.2386 22.7614 10 20 10C17.2386 10 15 12.2386 15 15C15 17.7614 17.2386 20 20 20Z" fill="#F7F7F7"/>
<path d="M11.6723 26.6508C12.4987 23.1586 15.9646 21.25 19.5532 21.25H20.4467C24.0353 21.25 27.5012 23.1586 28.3276 26.6508C28.4875 27.3264 28.6146 28.0335 28.6861 28.752C28.7545 29.439 28.1903 30 27.5 30H12.5C11.8096 30 11.2455 29.439 11.3138 28.752C11.3853 28.0335 11.5124 27.3264 11.6723 26.6508Z" fill="#F7F7F7"/>
</svg>
